<?xml version="1.0" standalone="no"?>
<!DOCTYPE svg PUBLIC "-//W3C//DTD SVG 20010904//EN"
 "http://www.w3.org/TR/2001/REC-SVG-20010904/DTD/svg10.dtd">
<svg version="1.0" xmlns="http://www.w3.org/2000/svg"
 width="504.000000pt" height="504.000000pt" viewBox="0 0 504.000000 504.000000"
 preserveAspectRatio="xMidYMid meet">
<metadata>
Created by potrace 1.11, written by Peter Selinger 2001-2013
</metadata>
<g transform="translate(0.000000,504.000000) scale(0.100000,-0.100000)"
fill="#000000" stroke="none">
<path d="M2410 4267 l0 -54 -32 1 c-18 1 -39 5 -47 10 -9 6 -12 5 -8 -1 4 -6
-16 -10 -56 -9 -34 1 -68 -3 -75 -8 -18 -13 -52 -15 -52 -4 0 5 -11 26 -25 46
-29 42 -34 22 -7 -23 20 -31 19 -55 -2 -55 -16 0 -76 -56 -69 -64 4 -3 1 -6
-5 -6 -17 0 -27 4 -25 11 1 3 -7 11 -19 18 -18 11 -19 10 -13 -11 4 -13 11
-25 15 -28 14 -11 19 -40 7 -52 -7 -8 -13 -20 -15 -28 -2 -8 -7 -17 -11 -20
-5 -3 -7 -13 -5 -22 1 -10 -1 -18 -6 -18 -4 0 -10 -13 -14 -30 -3 -16 -9 -44
-12 -60 -9 -44 -22 -46 -41 -6 -9 20 -21 36 -25 36 -5 0 -6 4 -3 10 3 6 -1 7
-10 3 -9 -3 -13 -9 -8 -12 8 -6 28 -41 58 -98 10 -18 11 -32 4 -45 -5 -10 -11
-38 -12 -63 -1 -25 -4 -45 -8 -45 -3 0 -5 -25 -5 -56 1 -31 -2 -58 -6 -60 -4
-3 -5 -11 -1 -19 3 -8 0 -15 -6 -15 -6 0 -11 -9 -11 -20 0 -11 4 -20 9 -20 5
0 5 -15 1 -36 -5 -20 -7 -45 -5 -56 7 -33 -4 -49 -26 -37 -10 5 -19 6 -19 2 0
-4 -4 -2 -9 6 -5 7 -11 9 -14 4 -6 -9 17 -25 54 -36 11 -4 15 -17 13 -53 -3
-68 -2 -67 -20 -60 -8 3 -12 2 -9 -4 3 -6 2 -10 -4 -10 -28 0 -89 -89 -75
-111 3 -5 0 -9 -6 -9 -6 0 -8 -5 -5 -10 4 -6 11 -8 16 -5 5 3 7 0 4 -7 -3 -7
4 -26 14 -42 19 -29 19 -29 -5 -51 -28 -26 -42 -61 -38 -95 1 -14 3 -32 3 -40
2 -19 66 -91 75 -83 3 3 6 1 6 -6 0 -7 6 -11 12 -9 12 4 45 -20 37 -26 -11 -8
-75 -30 -81 -28 -5 1 -8 -1 -8 -6 0 -16 -78 -11 -93 6 -21 25 -27 50 -14 56 8
3 8 5 1 5 -7 1 -10 14 -8 31 2 17 -1 30 -7 30 -6 0 -7 5 -2 13 10 16 11 28 2
53 -4 13 -3 26 4 33 6 6 7 11 1 11 -5 0 -8 18 -6 41 3 33 7 39 21 34 39 -16
44 -15 22 4 -13 12 -29 21 -36 21 -16 0 -22 17 -21 53 1 15 -2 27 -6 27 -4 0
-5 7 -2 15 4 8 1 15 -5 15 -24 0 -2 44 32 64 24 15 33 26 28 35 -6 10 -12 7
-25 -10 -9 -13 -16 -19 -16 -14 0 5 -5 4 -12 -3 -16 -16 -28 -15 -28 3 0 8 -4
15 -10 15 -16 0 -12 38 7 59 9 11 21 17 27 14 6 -3 5 0 -2 8 -11 12 -17 10
-36 -12 -14 -16 -28 -24 -35 -19 -7 4 -37 6 -67 4 -51 -3 -55 -2 -65 24 -10
25 -26 41 -40 42 -12 0 26 -69 39 -72 8 -2 1 -20 -22 -55 -19 -28 -31 -54 -28
-57 3 -3 0 -6 -6 -6 -6 0 -9 -9 -7 -20 2 -12 -2 -20 -10 -20 -9 0 -13 -11 -13
-32 0 -18 -2 -51 -5 -73 -5 -36 -11 -212 -7 -225 7 -28 4 -120 -4 -121 -6 -1
-26 -1 -44 -1 -23 0 -30 -4 -23 -12 5 -6 28 -11 50 -10 36 1 41 -2 41 -21 0
-11 5 -26 12 -33 7 -7 9 -12 5 -12 -4 0 -1 -16 8 -35 13 -32 13 -35 -2 -33 -9
2 -18 -3 -21 -10 -3 -10 4 -12 27 -9 24 4 35 1 44 -14 6 -10 16 -19 21 -19 5
0 17 -10 27 -22 11 -11 19 -17 19 -13 0 5 18 -11 41 -33 22 -23 45 -39 51 -36
6 4 8 2 4 -4 -3 -6 3 -13 14 -17 11 -3 20 -13 20 -20 0 -8 6 -12 13 -10 14 6
40 -31 32 -46 -4 -5 -10 -7 -15 -4 -5 3 -25 -10 -44 -30 -19 -19 -33 -35 -30
-35 2 0 -2 -12 -10 -27 -21 -42 -10 -173 15 -173 5 0 9 -5 9 -11 0 -13 20 -33
43 -42 16 -6 23 -27 17 -52 -1 -5 -1 -25 -1 -42 2 -42 2 -46 -1 -116 -2 -33 0
-61 3 -63 11 -7 -3 -54 -15 -48 -6 3 -2 -2 8 -10 11 -9 14 -16 8 -16 -9 0 -10
-5 -3 -19 6 -10 8 -21 4 -24 -8 -8 -10 -118 -2 -123 11 -7 -3 -54 -15 -48 -6
3 -2 -2 8 -10 11 -9 14 -16 8 -16 -9 0 -10 -5 -3 -18 5 -10 6 -23 2 -30 -8
-13 -6 -70 2 -78 3 -3 1 -19 -3 -35 -6 -20 -5 -29 3 -29 7 0 6 -4 -3 -10 -13
-9 -13 -10 0 -10 9 0 11 -3 5 -8 -12 -8 -13 -32 -2 -49 5 -7 4 -13 -2 -13 -5
0 -7 -10 -4 -23 3 -12 5 -32 6 -44 1 -13 4 -23 7 -23 3 0 12 -15 19 -32 8 -18
24 -41 35 -51 53 -46 66 -57 71 -57 24 -2 67 -14 71 -22 3 -5 13 -3 22 4 12
10 14 10 8 1 -9 -17 6 -17 23 -1 11 10 13 10 7 1 -4 -7 -2 -13 3 -13 6 0 11 5
11 10 0 6 5 10 11 10 5 0 7 -4 4 -10 -9 -14 8 -12 24 2 11 10 13 10 7 1 -9
-16 -1 -16 26 -2 15 8 19 8 14 0 -4 -6 -2 -11 3 -11 6 0 11 5 11 10 0 6 5 10
11 10 5 0 8 -3 6 -7 -8 -12 47 -12 61 -1 9 8 16 8 24 0 7 -7 23 -12 37 -12 21
0 23 2 11 10 -12 8 -10 9 7 7 12 -2 26 -6 29 -10 12 -12 26 -8 18 6 -6 9 -4 9
7 0 17 -17 32 -17 23 0 -6 9 -4 9 7 0 7 -7 20 -13 28 -13 14 0 14 1 1 10 -12
8 -10 9 7 7 12 -2 26 -6 29 -10 4 -4 14 -7 23 -7 14 0 14 2 1 11 -12 9 -11 10
5 4 44 -15 67 -16 59 -3 -5 10 -4 11 7 1 7 -7 20 -13 28 -13 14 0 14 1 1 10
-12 8 -10 9 7 7 12 -2 26 -6 29 -10 4 -4 14 -7 23 -7 14 0 14 2 1 11 -12 9
-11 10 5 4 44 -15 67 -16 59 -3 -5 10 -4 11 7 1 7 -7 20 -13 28 -13 14 0 14 1
1 10 -12 8 -10 9 7 7 12 -2 26 -6 29 -10 4 -4 14 -7 23 -7 14 0 14 2 1 11 -12
9 -11 10 5 4 44 -15 67 -16 59 -3 -5 10 -4 11 7 1 7 -7 20 -13 28 -13 14 0 14
2 1 11 -12 9 -11 10 5 4 23 -7 25 -8 43 -6 8 1 10 6 6 14 -6 9 -5 9 7 0 12
-10 21 -9 45 3 16 9 29 14 29 13 0 -7 61 37 69 49 4 8 17 23 27 33 11 11 17
19 14 19 -3 0 1 15 9 33 10 26 14 114 14 418 0 211 1 389 1 395 1 7 54 11 167
11 l165 -1 6 -28 c3 -15 9 -28 14 -28 5 0 8 -6 7 -12 -2 -8 7 -12 22 -11 45 4
90 15 90 23 0 4 8 7 18 7 28 -2 82 14 82 23 0 5 9 7 20 5 11 -2 20 1 20 7 0 6
3 9 6 5 10 -10 64 22 65 38 1 8 2 21 3 28 1 6 -4 24 -11 40 -7 15 -11 27 -9
27 3 0 -6 26 -20 58 -14 31 -31 69 -37 84 -7 16 -16 28 -20 28 -5 0 -6 4 -3 8
3 5 -6 30 -20 55 -13 26 -21 47 -17 47 4 0 -2 7 -13 15 -10 8 -16 15 -12 15 8
0 -56 128 -73 144 -5 6 -9 18 -9 27 0 10 -3 19 -8 21 -4 2 -23 35 -42 73 -19
39 -37 72 -40 75 -14 14 -49 93 -44 101 3 5 1 9 -4 9 -5 0 -12 12 -14 28 -3
15 -7 34 -9 42 -5 18 -45 60 -57 60 -5 0 -8 10 -8 23 1 12 -2 30 -7 41 -6 12
-6 16 2 12 7 -5 7 2 0 24 -6 16 -15 33 -20 36 -5 3 -6 10 -3 16 4 7 2 8 -4 4
-7 -4 -12 -3 -12 3 0 6 -11 13 -25 17 -14 3 -25 11 -25 16 0 6 -9 8 -20 5 -11
-3 -20 0 -20 6 0 8 -3 8 -8 2 -4 -5 -14 -11 -23 -11 -15 -1 -18 12 -9 36 1 3
2 9 1 14 -1 4 3 13 8 20 5 6 8 21 6 31 -2 11 -4 25 -4 31 -2 21 -70 82 -105
94 -31 10 -35 15 -32 41 2 16 -1 32 -5 35 -5 3 -5 13 1 23 6 12 5 22 -2 29 -9
9 -7 17 6 31 11 13 16 27 12 38 -6 15 -8 15 -16 3 -7 -11 -10 -8 -11 15 0 17
-2 62 -3 102 -3 67 -2 73 26 103 16 18 27 35 24 38 -3 3 -1 12 6 21 6 9 -2 3
-19 -14 -17 -16 -29 -33 -27 -36 2 -3 -3 -6 -11 -6 -15 0 -17 18 -17 119 0 21
-4 40 -9 44 -16 10 -10 35 22 80 17 25 29 50 27 56 -2 6 -15 -6 -28 -27 l-24
-39 -11 28 c-6 15 -11 37 -10 49 1 12 -2 25 -7 28 -17 11 -17 49 0 59 9 5 13
10 8 10 -5 0 1 11 14 25 19 20 20 25 7 25 -9 0 -21 -9 -27 -20 -15 -28 -24
-25 -43 14 -18 39 -47 76 -60 76 -5 0 -15 7 -24 15 -15 16 -9 33 23 61 7 5 9
16 5 22 -5 8 -17 -1 -37 -27 -28 -37 -30 -38 -55 -25 -15 7 -29 11 -32 8 -3
-3 -12 -2 -19 2 -18 12 -41 15 -133 17 l-80 3 0 52 c0 35 -4 52 -12 52 -9 0
-13 -17 -13 -53z m635 -1610 c1 -15 -1 -27 -5 -27 -4 0 -8 -17 -9 -37 -3 -68
-6 -76 -34 -79 -15 -1 -27 0 -28 4 -6 49 -4 100 4 95 6 -4 8 0 4 10 -4 10 1
18 14 22 10 4 19 14 19 23 0 10 -3 13 -8 7 -11 -16 -32 -16 -32 -1 0 10 11 13
37 11 32 -2 37 -5 38 -28z m-34 -174 c2 -24 2 -23 -6 -63 -3 -19 -7 -44 -8
-55 -1 -11 -8 -20 -16 -20 -22 0 -24 143 -2 148 29 8 31 7 32 -10z m-21 -183
c0 -5 -4 -11 -9 -14 -4 -3 -7 -17 -5 -32 1 -14 -1 -23 -4 -19 -4 4 -7 24 -8
45 0 27 4 36 13 33 7 -3 13 -9 13 -13z"/>
<path d="M1749 3499 c-10 -6 -7 -9 13 -9 15 0 30 -5 34 -11 3 -6 15 -9 25 -6
10 3 20 0 23 -7 2 -6 5 -3 5 7 1 17 -8 21 -43 17 -10 -1 -16 2 -13 7 8 12 -26
14 -44 2z"/>
<path d="M2997 3422 c-19 -21 -22 -32 -8 -32 5 0 16 11 25 25 19 29 7 34 -17
7z"/>
<path d="M1530 2300 c0 -5 7 -10 16 -10 8 0 12 5 9 10 -3 6 -10 10 -16 10 -5
0 -9 -4 -9 -10z"/>
</g>
</svg>
